<?xml version="1.0" encoding="utf-8"?>
<svg width="708" height="709" viewBox="0 0 708 709" fill="none" xmlns="http://www.w3.org/2000/svg">
  <path d="M707.423 537.488V356.001H707.999V353.998H707.423V172.511C707.413 128.004 690.092 85.245 659.125 53.2767V49.9837H707.423V47.9667H660.525L705.557 2.68768L704.185 1.31559L659.166 46.5946V2.28977H657.163V47.9667H653.76C622.252 17.8473 580.35 1.02654 536.762 1H170.647C127.078 1.04065 85.198 17.8604 53.7037 47.9667H50.2872V2.28977H48.2976V46.5534L3.2793 1.27441L1.90721 2.64651L46.9255 47.9255H2.85395V49.9288H48.2976V53.2767C17.3269 85.2425 0.00617912 128.003 0 172.511V537.488C0.00617912 581.996 17.3269 624.757 48.2976 656.723V660.071H2.85395V662.074H46.8844L1.86605 707.353L3.23814 708.725L48.2565 663.446V707.71H50.246V662.033H53.6625C85.1671 692.149 127.064 708.969 170.647 708.999H536.762C580.336 708.962 622.222 692.142 653.719 662.033H657.122V707.71H659.125V663.446L704.144 708.725L705.516 707.353L660.484 662.074H707.999V660.071H659.125V656.723C690.085 624.75 707.404 581.994 707.423 537.488ZM705.42 537.488C705.416 580.754 688.851 622.377 659.125 653.814V481.85H704.706V479.86H659.125V356.001H705.42V537.488ZM479.313 479.86L477.941 478.488C480.218 476.174 482.427 473.795 484.568 471.353V479.86H479.313ZM484.568 481.863V485.143L481.302 481.863H484.568ZM223.994 479.86V472.656C225.778 474.646 227.616 476.581 229.482 478.488L228.11 479.86H223.994ZM226.121 481.863L223.994 483.976V481.85L226.121 481.863ZM228.11 230.139L229.482 231.511C227.616 233.419 225.778 235.367 223.994 237.343V230.139H228.11ZM223.994 228.136V226.023L226.121 228.15L223.994 228.136ZM484.568 230.139V238.646C482.427 236.204 480.218 233.826 477.941 231.511L479.313 230.139H484.568ZM481.302 228.136L484.568 224.857V228.136H481.302ZM484.568 353.984H479.875C479.667 321.065 466.668 289.516 443.625 266.006L476.555 232.938C479.299 235.747 481.979 238.66 484.595 241.679L484.568 353.984ZM486.557 244.052C512.149 274.984 526.213 313.838 526.348 353.984H486.557V244.052ZM442.211 267.378C464.892 290.5 477.686 321.541 477.886 353.929H356.113L442.211 267.378ZM354.713 352.448V230.139C386.992 230.365 417.896 243.231 440.798 265.978L354.713 352.448ZM352.71 352.448L266.611 265.882C289.539 243.177 320.443 230.347 352.71 230.139V352.448ZM351.338 353.82H229.537C229.744 321.432 242.537 290.395 265.212 267.268L351.338 353.82ZM351.338 355.823L265.239 442.374C242.564 419.248 229.771 388.21 229.565 355.823H351.338ZM352.71 357.195V479.86C320.425 479.633 289.515 466.762 266.611 444.007L352.71 357.195ZM354.713 357.195L440.798 443.747C417.943 466.598 387.031 479.566 354.713 479.86V357.195ZM356.085 355.823H477.845C477.645 388.212 464.851 419.252 442.17 442.374L356.085 355.823ZM475.114 231.511L442.184 264.593C424.109 246.661 401.012 234.645 375.953 230.139H473.715L475.114 231.511ZM354.713 228.136V181.389C398.198 181.601 439.98 198.314 471.615 228.15L354.713 228.136ZM352.71 228.136H235.808C267.438 198.292 309.223 181.578 352.71 181.375V228.136ZM331.456 230.139C306.39 234.646 283.284 246.661 265.198 264.593L232.268 231.511L233.64 230.139H331.456ZM230.896 232.883L263.826 265.951C240.772 289.454 227.771 321.008 227.575 353.929H224.021V240.375C226.23 237.837 228.522 235.353 230.896 232.952V232.883ZM222.004 353.929H181.02C181.173 313.168 195.684 273.764 222.004 242.639V353.929ZM222.004 355.933V467.223C195.684 436.098 181.173 396.694 181.02 355.933H222.004ZM223.994 355.933H227.548C227.741 388.851 240.743 420.401 263.798 443.897L230.868 476.979C228.494 474.577 226.203 472.094 224.008 469.556L223.994 355.933ZM232.309 478.488L265.239 445.407C283.314 463.331 306.404 475.345 331.456 479.86H233.708L232.309 478.488ZM352.71 481.863V528.624C309.223 528.421 267.438 511.707 235.808 481.863H352.71ZM354.713 481.863H471.615C439.98 511.699 398.198 528.412 354.713 528.624V481.863ZM375.953 479.86C401.022 475.359 424.129 463.343 442.211 445.407L475.142 478.488L473.77 479.86H375.953ZM476.527 477.116L443.597 444.035C466.643 420.532 479.643 388.986 479.848 356.07H484.54V468.376C481.979 471.339 479.308 474.253 476.527 477.116ZM486.557 356.07H526.348C526.213 396.216 512.149 435.07 486.557 466.002V356.07ZM528.392 354.067C528.24 312.63 513.419 272.585 486.557 241.034V230.139H592.071C611.933 268.406 622.345 310.871 622.436 353.984L528.392 354.067ZM486.557 228.218V222.922L544.432 164.759C562.966 183.532 578.66 204.91 591.015 228.218H486.557ZM486.557 220.096V120.125C507.198 131.952 526.183 146.457 543.019 163.264L486.557 220.096ZM484.568 222.099L478.49 228.218H474.524C442.373 197.107 399.452 179.608 354.713 179.372V84.8622C400.203 84.9621 444.91 96.715 484.568 119V222.099ZM352.71 179.372C307.982 179.583 265.062 197.052 232.899 228.136H228.933L223.994 223.169V118.341C263.376 96.4702 307.662 84.9466 352.71 84.8485V179.372ZM222.004 221.18L164.377 163.264C181.534 146.149 200.918 131.423 222.004 119.48V221.18ZM222.004 224.02V228.136H116.353C128.704 204.825 144.398 183.446 162.936 164.677L222.004 224.02ZM222.004 230.153V239.62C194.433 271.364 179.178 311.953 179.017 353.998H84.9874C85.0763 310.88 95.488 268.41 115.352 230.139L222.004 230.153ZM179.017 356.001C179.178 398.046 194.433 438.635 222.004 470.379V479.86H115.352C95.4901 441.594 85.0784 399.129 84.9874 356.015L179.017 356.001ZM222.004 481.85V485.966L163.004 545.281C144.466 526.512 128.773 505.133 116.422 481.822L222.004 481.85ZM222.004 488.82V590.519C200.918 578.577 181.534 563.85 164.377 546.736L222.004 488.82ZM223.994 486.816L228.933 481.85H232.899C265.059 512.939 307.98 530.412 352.71 530.627V625.165C307.662 625.055 263.377 613.527 223.994 591.658V486.816ZM354.713 530.627C399.441 530.413 442.36 512.945 474.524 481.863H478.49L484.568 487.983V590.999C444.908 613.282 400.204 625.039 354.713 625.151V530.627ZM486.557 489.986L543.019 546.749C526.177 563.548 507.192 578.053 486.557 589.888V489.986ZM486.557 487.16V481.863H591.015C578.66 505.171 562.966 526.55 544.432 545.322L486.557 487.16ZM486.557 479.86V469.048C513.419 437.496 528.24 397.452 528.392 356.015H622.436C622.345 399.129 611.933 441.594 592.071 479.86H486.557ZM624.425 356.015H657.122V479.86H594.322C614.022 441.54 624.339 399.089 624.425 356.001V356.015ZM624.425 354.012C624.342 310.92 614.024 268.464 594.322 230.139H657.122V353.984L624.425 354.012ZM593.265 228.163C580.742 204.316 564.763 182.451 545.846 163.277L655.86 52.7278L655.956 52.8102C656.368 53.2355 656.779 53.6883 657.191 54.1823V228.15L593.265 228.163ZM654.351 51.342L544.432 161.85C527.199 144.649 507.733 129.84 486.557 117.82V49.97H652.924L654.351 51.342ZM484.568 116.708C444.848 94.6093 400.167 82.9575 354.713 82.8453V49.9151H484.568V116.708ZM354.713 47.9667V3.00325H484.568V47.9667H354.713ZM352.71 47.9667H223.994V3.00325H352.71V47.9667ZM352.71 49.97V82.9001C307.698 83.0055 263.435 94.4286 223.994 116.118V49.97H352.71ZM222.004 117.202C200.391 129.327 180.54 144.354 163.004 161.864L53.0862 51.3558L54.4583 49.9837H222.004V117.202ZM51.5358 52.8102L51.6181 52.7278L161.578 163.264C142.652 182.434 126.668 204.3 114.144 228.15H50.2872V54.1274C50.7674 53.6883 51.1104 53.2355 51.5358 52.8102ZM113.102 230.139C93.4035 268.455 83.0859 310.901 82.9978 353.984H50.2872V230.139H113.102ZM82.9978 355.988C83.0815 399.08 93.3992 441.536 113.102 479.86H50.2872V356.001L82.9978 355.988ZM114.144 481.836C126.668 505.686 142.652 527.552 161.578 546.722L51.6181 657.271L51.5358 657.189C51.1104 656.764 50.7125 656.311 50.2872 655.817V481.85L114.144 481.836ZM53.0725 658.657L162.991 548.149C180.53 565.659 200.38 580.69 221.991 592.824V660.057H54.4995L53.0725 658.657ZM223.994 593.936C263.435 615.626 307.698 627.049 352.71 627.154V660.084H223.994V593.936ZM352.71 662.033V706.996H223.994V662.033H352.71ZM354.713 662.033H484.568V706.996H354.713V662.033ZM354.713 660.029V627.099C400.167 626.987 444.848 615.335 484.568 593.236V659.974L354.713 660.029ZM486.557 592.179C507.733 580.159 527.199 565.35 544.432 548.149L654.351 658.657L652.978 660.029H486.557V592.179ZM655.86 657.189L655.764 657.271L545.818 546.736C564.735 527.562 580.714 505.697 593.237 481.85H657.095V655.872L655.86 657.189ZM705.42 172.511V353.998H659.125V230.139H704.706V228.136H659.125V56.2267C688.842 87.6533 705.406 129.26 705.42 172.511ZM650.838 47.9255H486.557V3.00325H536.762C579.104 3.03452 619.862 19.0997 650.838 47.9667V47.9255ZM170.606 2.96209H222.004V47.9255H56.5851C87.5628 19.0756 128.316 3.02544 170.647 3.00325L170.606 2.96209ZM1.98953 537.488V172.511C1.99809 129.244 18.5677 87.6211 48.2976 56.1855V228.109H2.74418V230.139H48.2976V353.984H2.57953V355.988H48.2976V479.86H2.74418V481.863H48.2976V653.786C18.5743 622.358 2.0051 580.746 1.98953 537.488ZM56.5851 662.074H222.004V707.037H170.647C128.305 706.993 87.5502 690.913 56.5851 662.033V662.074ZM536.817 707.037H486.557V662.033H650.838C619.861 690.897 579.103 706.962 536.762 706.996L536.817 707.037Z" fill="url(#paint0_radial_318_12001)"/>
  <mask id="mask0_318_12001" style="mask-type:alpha" maskUnits="userSpaceOnUse" x="32" y="0" width="631" height="709">
    <rect x="32" width="631" height="709" fill="url(#paint1_linear_318_12001)"/>
  </mask>
  <g mask="url(#mask0_318_12001)">
    <g filter="url(#filter0_b_318_12001)">
      <path d="M134 623.456C134 617.989 134 615.255 135.081 613.175C135.992 611.421 137.421 609.992 139.175 609.081C141.255 608 143.989 608 149.456 608H202.544C208.011 608 210.745 608 212.825 609.081C214.579 609.992 216.008 611.421 216.919 613.175C218 615.255 218 617.989 218 623.456V676.544C218 682.011 218 684.745 216.919 686.825C216.008 688.579 214.579 690.008 212.825 690.919C210.745 692 208.011 692 202.544 692H149.456C143.989 692 141.255 692 139.175 690.919C137.421 690.008 135.992 688.579 135.081 686.825C134 684.745 134 682.011 134 676.544V623.456Z" fill="#0F172A" fill-opacity="0.1"/>
      <path d="M202.544 607.5H149.456H149.432C146.719 607.5 144.652 607.5 143.004 607.637C141.346 607.775 140.068 608.053 138.944 608.637C137.099 609.595 135.595 611.099 134.637 612.944C134.053 614.068 133.775 615.346 133.637 617.004C133.5 618.652 133.5 620.719 133.5 623.432V623.456V676.544V676.568C133.5 679.281 133.5 681.348 133.637 682.996C133.775 684.654 134.053 685.932 134.637 687.056C135.595 688.901 137.099 690.405 138.944 691.363C140.068 691.947 141.346 692.225 143.004 692.363C144.652 692.5 146.719 692.5 149.432 692.5H149.456H202.544H202.568C205.281 692.5 207.348 692.5 208.996 692.363C210.654 692.225 211.932 691.947 213.056 691.363C214.901 690.405 216.405 688.901 217.363 687.056C217.947 685.932 218.225 684.654 218.363 682.996C218.5 681.348 218.5 679.281 218.5 676.568V676.544V623.456V623.432C218.5 620.719 218.5 618.652 218.363 617.004C218.225 615.346 217.947 614.068 217.363 612.944C216.405 611.099 214.901 609.595 213.056 608.637C211.932 608.053 210.654 607.775 208.996 607.637C207.348 607.5 205.281 607.5 202.568 607.5H202.544Z" stroke="#0F172A" stroke-opacity="0.2"/>
    </g>
    <path d="M150.625 621H201.375L196.759 673.111L175.944 679L155.246 673.108L150.625 621ZM191.926 631.665L160.074 631.657L160.589 637.994L185.058 637.999L184.441 644.562H168.395L168.975 650.781H183.915L183.03 659.294L175.998 661.237L168.854 659.28L168.4 654.181H162.092L162.793 663.497L176 667.613L188.985 663.915L191.926 631.667V631.665Z" fill="#0F172A"/>
    <g filter="url(#filter1_b_318_12001)">
      <path d="M428.633 70.6328H375.633C367.349 70.6328 360.633 77.3485 360.633 85.6328V138.633C360.633 146.917 367.349 153.633 375.633 153.633H428.633C436.917 153.633 443.633 146.917 443.633 138.633V85.6328C443.633 77.3485 436.917 70.6328 428.633 70.6328Z" fill="#0F172A" fill-opacity="0.1"/>
      <path d="M428.633 70.1328H375.633C367.072 70.1328 360.133 77.0724 360.133 85.6328V138.633C360.133 147.193 367.072 154.133 375.633 154.133H428.633C437.193 154.133 444.133 147.193 444.133 138.633V85.6328C444.133 77.0724 437.193 70.1328 428.633 70.1328Z" stroke="#0F172A" stroke-opacity="0.2"/>
    </g>
    <path d="M416.387 135.477C418.059 138.206 420.234 140.213 424.081 140.213C427.313 140.213 429.377 138.598 429.377 136.366C429.377 133.691 427.256 132.744 423.699 131.188L421.749 130.352C416.121 127.954 412.382 124.95 412.382 118.6C412.382 112.75 416.839 108.297 423.805 108.297C428.763 108.297 432.328 110.023 434.898 114.542L428.824 118.442C427.487 116.044 426.044 115.099 423.805 115.099C421.52 115.099 420.072 116.549 420.072 118.442C420.072 120.782 421.521 121.729 424.868 123.178L426.818 124.013C433.444 126.855 437.186 129.752 437.186 136.266C437.186 143.288 431.67 147.135 424.262 147.135C417.018 147.135 412.339 143.683 410.049 139.159L416.387 135.477ZM388.835 136.152C390.06 138.326 391.175 140.164 393.855 140.164C396.417 140.164 398.034 139.162 398.034 135.263V108.743H405.833V135.369C405.833 143.445 401.098 147.12 394.187 147.12C387.942 147.12 384.326 143.889 382.486 139.996L388.835 136.152Z" fill="#0F172A"/>
    <g filter="url(#filter2_b_318_12001)">
      <rect x="185.367" y="27.3677" width="84" height="84" rx="16" fill="#0F172A" fill-opacity="0.1"/>
      <rect x="184.867" y="26.8677" width="85" height="85" rx="16.5" stroke="#0F172A" stroke-opacity="0.2"/>
    </g>
    <path d="M227.179 80.9304C244.849 81.2181 259.259 76.2765 259.363 69.893C259.466 63.5095 245.226 58.1013 227.555 57.8135C209.884 57.5258 195.475 62.4674 195.371 68.8509C195.267 75.2344 209.508 80.6426 227.179 80.9304Z" stroke="#0F172A" stroke-width="2.92055"/>
    <path d="M216.693 74.9749C225.292 89.5977 237.042 98.9414 242.938 95.8448C248.833 92.7482 246.64 78.3838 238.041 63.7611C229.441 49.1383 217.691 39.7945 211.796 42.8911C205.901 45.9877 208.093 60.3521 216.693 74.9749Z" stroke="#0F172A" stroke-width="2.92055"/>
    <path d="M216.881 63.4161C207.81 77.7511 205.151 92.0365 210.942 95.3234C216.733 98.6104 228.781 89.6541 237.853 75.3191C246.924 60.9841 249.583 46.6987 243.792 43.4118C238.001 40.1249 225.952 49.0811 216.881 63.4161Z" stroke="#0F172A" stroke-width="2.92055"/>
    <g filter="url(#filter3_b_318_12001)">
      <path fill-rule="evenodd" clip-rule="evenodd" d="M239.461 69.6435C238.633 67.9501 237.711 66.2312 236.696 64.5055C235.682 62.7814 234.625 61.1349 233.542 59.5777C231.579 59.4065 229.545 59.3 227.459 59.266C225.373 59.2321 223.337 59.2723 221.369 59.3796C220.235 60.9006 219.125 62.5118 218.056 64.2019C216.985 65.8936 216.008 67.5816 215.125 69.2472C215.953 70.9404 216.875 72.659 217.89 74.3844C218.905 76.1112 219.964 77.7602 221.049 79.3195C223.011 79.4906 225.043 79.5969 227.127 79.6308C229.212 79.6648 231.246 79.6247 233.212 79.5176C234.348 77.9944 235.459 76.3808 236.531 74.6879C237.601 72.9965 238.579 71.3088 239.461 69.6435Z" fill="#0F172A" fill-opacity="0.2"/>
    </g>
    <path d="M227.301 75.0102C230.594 75.0638 233.304 72.5815 233.355 69.4657C233.406 66.3499 230.777 63.7806 227.484 63.727C224.191 63.6734 221.48 66.1557 221.43 69.2715C221.379 72.3873 224.007 74.9566 227.301 75.0102Z" fill="#0F172A"/>
    <g filter="url(#filter4_b_318_12001)">
      <rect x="488.962" y="355" width="84" height="84" rx="15" transform="rotate(0.656233 488.962 355)" fill="#0F172A" fill-opacity="0.1"/>
      <rect x="488.468" y="354.494" width="85" height="85" rx="15.5" transform="rotate(0.656233 488.468 354.494)" stroke="#0F172A" stroke-opacity="0.2"/>
    </g>
    <g filter="url(#filter5_b_318_12001)">
      <rect x="270" y="177" width="84" height="84" rx="15" fill="#0F172A" fill-opacity="0.1"/>
      <rect x="269.5" y="176.5" width="85" height="85" rx="15.5" stroke="#0F172A" stroke-opacity="0.2"/>
    </g>
    <g filter="url(#filter6_b_318_12001)">
      <rect x="430.161" y="231.161" width="84" height="84" rx="15" fill-opacity="0.1" style="fill: rgb(15, 15, 15);"/>
      <rect x="429.661" y="230.661" width="85" height="85" rx="15.5" stroke="#0F172A" stroke-opacity="0.2"/>
    </g>
    <g clip-path="url(#clip0_318_12001)"/>
    <g filter="url(#filter7_b_318_12001)">
      <path d="M389.895 324H323.105C318.629 324 315 327.629 315 332.105V398.895C315 403.371 318.629 407 323.105 407H389.895C394.371 407 398 403.371 398 398.895V332.105C398 327.629 394.371 324 389.895 324Z" fill="#0F172A" fill-opacity="0.1"/>
      <path d="M389.895 323.5H323.105C318.353 323.5 314.5 327.353 314.5 332.105V398.895C314.5 403.647 318.353 407.5 323.105 407.5H389.895C394.647 407.5 398.5 403.647 398.5 398.895V332.105C398.5 327.353 394.647 323.5 389.895 323.5Z" stroke="#0F172A" stroke-opacity="0.2"/>
    </g>
    <path fill-rule="evenodd" clip-rule="evenodd" d="M 239.26 515.488 L 239.26 523.593 C 240.573 524.274 242.178 524.777 243.961 525.117 C 245.745 525.457 247.69 525.619 249.635 525.619 C 251.581 525.619 253.364 525.441 255.147 525.068 C 256.93 524.695 258.389 524.079 259.686 523.285 C 260.999 522.426 262.118 521.34 262.766 519.881 C 263.414 518.422 263.917 516.801 263.917 514.693 C 263.917 513.218 263.69 511.937 263.252 510.803 C 262.815 509.668 262.182 508.695 261.307 507.885 C 260.48 507.026 259.524 506.264 258.389 505.615 C 257.254 504.967 255.957 504.286 254.498 503.67 C 253.429 503.232 252.553 502.811 251.581 502.389 C 250.738 501.968 250.008 501.546 249.473 501.125 C 248.873 500.687 248.419 500.233 248.095 499.763 C 247.771 499.277 247.609 498.742 247.609 498.142 C 247.609 497.591 247.753 497.088 248.047 496.634 C 248.34 496.18 248.744 495.808 249.262 495.483 C 249.781 495.159 250.43 494.916 251.208 494.738 C 251.97 494.559 252.813 494.478 253.801 494.478 C 254.482 494.478 255.196 494.529 255.909 494.631 C 256.655 494.733 257.416 494.89 258.178 495.101 C 258.94 495.312 259.686 495.571 260.448 495.895 C 261.161 496.219 261.826 496.592 262.393 497.014 L 262.393 489.395 C 261.161 488.924 259.799 488.568 258.34 488.341 C 256.881 488.114 255.26 488 253.315 488 C 251.37 488 249.587 488.211 247.803 488.616 C 246.02 489.022 244.561 489.67 243.264 490.562 C 241.951 491.437 240.995 492.507 240.184 493.966 C 239.422 495.328 239.049 496.884 239.049 498.829 C 239.049 501.261 239.747 503.368 241.157 504.989 C 242.551 506.773 244.723 508.07 247.479 509.366 C 248.598 509.82 249.587 510.274 250.559 510.712 C 251.532 511.15 252.342 511.604 252.991 512.074 C 253.688 512.544 254.239 513.063 254.612 513.614 C 255.017 514.165 255.228 514.813 255.228 515.559 C 255.228 516.078 255.102 516.564 254.855 517.018 C 254.609 517.472 254.223 517.861 253.704 518.185 C 253.185 518.509 252.553 518.769 251.759 518.963 C 250.997 519.142 250.138 519.239 249.003 519.239 C 247.22 519.239 245.437 518.931 243.815 518.315 C 242.032 517.699 240.411 516.775 238.952 515.559 L 239.26 515.488 Z M 225.643 495.548 L 236.018 495.548 L 236.018 488.902 L 207 488.902 L 207 495.548 L 217.375 495.548 L 217.375 525.214 L 225.643 525.214 L 225.643 495.548 Z" fill="#0F172A"/>
    <g filter="url(#filter8_b_318_12001)">
      <rect x="347" y="470" width="84" height="84" rx="15" fill="#0F172A" fill-opacity="0.1"/>
      <rect x="346.5" y="469.5" width="85" height="85" rx="15.5" stroke="#0F172A" stroke-opacity="0.2"/>
    </g>
    <g clip-path="url(#clip1_318_12001)">
      <path d="M389.082 483.719C373.016 483.719 360 496.746 360 512.801C360 525.657 368.332 536.554 379.879 540.398C381.339 540.673 381.866 539.773 381.866 538.995C381.866 538.304 381.85 536.478 381.839 534.053C373.745 535.805 372.04 530.143 372.04 530.143C370.715 526.791 368.803 525.892 368.803 525.892C366.171 524.094 369.012 524.132 369.012 524.132C371.927 524.33 373.461 527.122 373.461 527.122C376.055 531.572 380.267 530.285 381.933 529.536C382.188 527.662 382.946 526.373 383.771 525.655C377.315 524.927 370.526 522.427 370.526 511.283C370.526 508.101 371.653 505.509 373.516 503.473C373.194 502.744 372.209 499.781 373.772 495.775C373.772 495.775 376.206 494.999 381.77 498.758C384.098 498.113 386.57 497.791 389.04 497.775C391.512 497.791 393.982 498.115 396.311 498.758C401.842 494.999 404.274 495.775 404.274 495.775C405.835 499.781 404.85 502.742 404.566 503.473C406.411 505.509 407.538 508.103 407.538 511.283C407.538 522.453 400.74 524.916 394.277 525.626C395.287 526.497 396.234 528.287 396.234 531.005C396.234 534.894 396.198 538.028 396.198 538.975C396.198 539.731 396.707 540.64 398.205 540.347C409.838 536.543 418.16 525.637 418.16 512.799C418.16 496.744 405.144 483.717 389.078 483.717L389.082 483.719Z" fill="#0F172A"/>
    </g>
    <g filter="url(#filter9_b_318_12001)">
      <rect x="184" y="444" width="84" height="84" rx="15" fill="#0F172A" fill-opacity="0.1"/>
      <rect x="183.5" y="443.5" width="85" height="85" rx="15.5" stroke="#0F172A" stroke-opacity="0.2"/>
    </g>
    <g filter="url(#filter10_b_318_12001)">
      <rect x="157" y="271" width="84" height="84" rx="15" fill="#0F172A" fill-opacity="0.1"/>
      <rect x="156.5" y="270.5" width="85" height="85" rx="15.5" stroke="#0F172A" stroke-opacity="0.2"/>
    </g>
    <g filter="url(#filter11_b_318_12001)">
      <rect x="390" y="597" width="84" height="84" rx="15" fill="#0F172A" fill-opacity="0.1"/>
      <rect x="389.5" y="596.5" width="85" height="85" rx="15.5" stroke="#0F172A" stroke-opacity="0.2"/>
    </g>
    <path d="M404.006 606C403.401 606 402.951 606.493 403.004 607.095L408.104 664.299C408.158 664.901 408.679 665.526 409.262 665.688L430.903 671.697C431.486 671.859 432.439 671.859 433.023 671.698L454.729 665.679C455.312 665.517 455.834 664.892 455.887 664.29L460.996 607.095C461.05 606.493 460.599 606 459.994 606H404.006ZM450.135 619.119C450.087 619.657 450.003 620.59 449.95 621.192L449.815 622.693C449.761 623.295 449.684 624.157 449.643 624.607C449.603 625.058 449.565 625.426 449.557 625.426C449.551 625.426 449.05 625.426 448.445 625.426H433.1C432.495 625.426 431.995 625.426 431.988 625.426C431.982 625.426 431.481 625.426 430.876 625.426H422.795C422.19 625.426 421.739 625.919 421.793 626.521L422.264 631.791C422.318 632.393 422.857 632.886 423.462 632.886H430.877C431.481 632.886 431.982 632.886 431.989 632.886C431.995 632.886 432.495 632.886 433.1 632.886H445.845C446.45 632.886 447.386 632.886 447.925 632.886C448.464 632.886 448.865 633.326 448.816 633.863C448.767 634.401 448.684 635.334 448.63 635.936L447.114 652.924C447.06 653.527 446.992 654.296 446.962 654.635C446.932 654.973 446.431 655.382 445.848 655.543L433.06 659.089C432.477 659.251 431.993 659.384 431.984 659.386C431.975 659.388 431.491 659.257 430.907 659.096L418.106 655.544C417.523 655.382 417.002 654.757 416.949 654.154L416.125 644.905C416.071 644.303 416.522 643.81 417.127 643.81H418.295C418.9 643.81 419.89 643.81 420.495 643.81H422.237C422.842 643.81 423.381 644.303 423.435 644.905L423.758 648.526C423.812 649.128 424.333 649.75 424.918 649.908L430.905 651.525C431.489 651.683 431.969 651.812 431.972 651.812C431.974 651.812 432.454 651.682 433.038 651.525L439.037 649.904C439.621 649.746 440.143 649.124 440.197 648.522L440.847 641.268C440.901 640.665 440.451 640.172 439.846 640.172H433.1C432.495 640.172 431.995 640.172 431.989 640.172C431.982 640.172 431.481 640.172 430.877 640.172H416.801C416.196 640.172 415.657 639.679 415.603 639.077L414.007 621.192C413.954 620.589 413.87 619.657 413.822 619.119C413.774 618.582 414.23 618.142 414.835 618.142H430.877C431.481 618.142 431.982 618.142 431.989 618.142C431.995 618.142 432.495 618.142 433.1 618.142H449.122C449.727 618.142 450.183 618.582 450.135 619.119Z" fill="#0F172A"/>
  </g>
  <defs>
    <filter id="filter0_b_318_12001" x="99" y="573" width="154" height="154" filterUnits="userSpaceOnUse" color-interpolation-filters="sRGB">
      <feFlood flood-opacity="0" result="BackgroundImageFix"/>
      <feGaussianBlur in="BackgroundImageFix" stdDeviation="17"/>
      <feComposite in2="SourceAlpha" operator="in" result="effect1_backgroundBlur_318_12001"/>
      <feBlend mode="normal" in="SourceGraphic" in2="effect1_backgroundBlur_318_12001" result="shape"/>
    </filter>
    <filter id="filter1_b_318_12001" x="325.633" y="35.6328" width="153" height="153" filterUnits="userSpaceOnUse" color-interpolation-filters="sRGB">
      <feFlood flood-opacity="0" result="BackgroundImageFix"/>
      <feGaussianBlur in="BackgroundImageFix" stdDeviation="17"/>
      <feComposite in2="SourceAlpha" operator="in" result="effect1_backgroundBlur_318_12001"/>
      <feBlend mode="normal" in="SourceGraphic" in2="effect1_backgroundBlur_318_12001" result="shape"/>
    </filter>
    <filter id="filter2_b_318_12001" x="150.367" y="-7.63232" width="154" height="154" filterUnits="userSpaceOnUse" color-interpolation-filters="sRGB">
      <feFlood flood-opacity="0" result="BackgroundImageFix"/>
      <feGaussianBlur in="BackgroundImageFix" stdDeviation="17"/>
      <feComposite in2="SourceAlpha" operator="in" result="effect1_backgroundBlur_318_12001"/>
      <feBlend mode="normal" in="SourceGraphic" in2="effect1_backgroundBlur_318_12001" result="shape"/>
    </filter>
    <filter id="filter3_b_318_12001" x="211.787" y="55.9166" width="31.0115" height="27.0637" filterUnits="userSpaceOnUse" color-interpolation-filters="sRGB">
      <feFlood flood-opacity="0" result="BackgroundImageFix"/>
      <feGaussianBlur in="BackgroundImageFix" stdDeviation="1.66889"/>
      <feComposite in2="SourceAlpha" operator="in" result="effect1_backgroundBlur_318_12001"/>
      <feBlend mode="normal" in="SourceGraphic" in2="effect1_backgroundBlur_318_12001" result="shape"/>
    </filter>
    <filter id="filter4_b_318_12001" x="453.171" y="320.171" width="154.614" height="154.615" filterUnits="userSpaceOnUse" color-interpolation-filters="sRGB">
      <feFlood flood-opacity="0" result="BackgroundImageFix"/>
      <feGaussianBlur in="BackgroundImageFix" stdDeviation="17"/>
      <feComposite in2="SourceAlpha" operator="in" result="effect1_backgroundBlur_318_12001"/>
      <feBlend mode="normal" in="SourceGraphic" in2="effect1_backgroundBlur_318_12001" result="shape"/>
    </filter>
    <filter id="filter5_b_318_12001" x="235" y="142" width="154" height="154" filterUnits="userSpaceOnUse" color-interpolation-filters="sRGB">
      <feFlood flood-opacity="0" result="BackgroundImageFix"/>
      <feGaussianBlur in="BackgroundImageFix" stdDeviation="17"/>
      <feComposite in2="SourceAlpha" operator="in" result="effect1_backgroundBlur_318_12001"/>
      <feBlend mode="normal" in="SourceGraphic" in2="effect1_backgroundBlur_318_12001" result="shape"/>
    </filter>
    <filter id="filter6_b_318_12001" x="395.161" y="196.161" width="154" height="154" filterUnits="userSpaceOnUse" color-interpolation-filters="sRGB">
      <feFlood flood-opacity="0" result="BackgroundImageFix"/>
      <feGaussianBlur in="BackgroundImageFix" stdDeviation="17"/>
      <feComposite in2="SourceAlpha" operator="in" result="effect1_backgroundBlur_318_12001"/>
      <feBlend mode="normal" in="SourceGraphic" in2="effect1_backgroundBlur_318_12001" result="shape"/>
    </filter>
    <filter id="filter7_b_318_12001" x="280" y="289" width="153" height="153" filterUnits="userSpaceOnUse" color-interpolation-filters="sRGB">
      <feFlood flood-opacity="0" result="BackgroundImageFix"/>
      <feGaussianBlur in="BackgroundImageFix" stdDeviation="17"/>
      <feComposite in2="SourceAlpha" operator="in" result="effect1_backgroundBlur_318_12001"/>
      <feBlend mode="normal" in="SourceGraphic" in2="effect1_backgroundBlur_318_12001" result="shape"/>
    </filter>
    <filter id="filter8_b_318_12001" x="312" y="435" width="154" height="154" filterUnits="userSpaceOnUse" color-interpolation-filters="sRGB">
      <feFlood flood-opacity="0" result="BackgroundImageFix"/>
      <feGaussianBlur in="BackgroundImageFix" stdDeviation="17"/>
      <feComposite in2="SourceAlpha" operator="in" result="effect1_backgroundBlur_318_12001"/>
      <feBlend mode="normal" in="SourceGraphic" in2="effect1_backgroundBlur_318_12001" result="shape"/>
    </filter>
    <filter id="filter9_b_318_12001" x="149" y="409" width="154" height="154" filterUnits="userSpaceOnUse" color-interpolation-filters="sRGB">
      <feFlood flood-opacity="0" result="BackgroundImageFix"/>
      <feGaussianBlur in="BackgroundImageFix" stdDeviation="17"/>
      <feComposite in2="SourceAlpha" operator="in" result="effect1_backgroundBlur_318_12001"/>
      <feBlend mode="normal" in="SourceGraphic" in2="effect1_backgroundBlur_318_12001" result="shape"/>
    </filter>
    <filter id="filter10_b_318_12001" x="122" y="236" width="154" height="154" filterUnits="userSpaceOnUse" color-interpolation-filters="sRGB">
      <feFlood flood-opacity="0" result="BackgroundImageFix"/>
      <feGaussianBlur in="BackgroundImageFix" stdDeviation="17"/>
      <feComposite in2="SourceAlpha" operator="in" result="effect1_backgroundBlur_318_12001"/>
      <feBlend mode="normal" in="SourceGraphic" in2="effect1_backgroundBlur_318_12001" result="shape"/>
    </filter>
    <filter id="filter11_b_318_12001" x="355" y="562" width="154" height="154" filterUnits="userSpaceOnUse" color-interpolation-filters="sRGB">
      <feFlood flood-opacity="0" result="BackgroundImageFix"/>
      <feGaussianBlur in="BackgroundImageFix" stdDeviation="17"/>
      <feComposite in2="SourceAlpha" operator="in" result="effect1_backgroundBlur_318_12001"/>
      <feBlend mode="normal" in="SourceGraphic" in2="effect1_backgroundBlur_318_12001" result="shape"/>
    </filter>
    <radialGradient id="paint0_radial_318_12001" cx="0" cy="0" r="1" gradientUnits="userSpaceOnUse" gradientTransform="translate(354 355) rotate(90) scale(372.936)">
      <stop stop-color="white"/>
      <stop offset="1" stop-color="white" stop-opacity="0"/>
      <stop offset="1" stop-color="white" stop-opacity="0"/>
    </radialGradient>
    <linearGradient id="paint1_linear_318_12001" x1="197" y1="-87" x2="433" y2="746" gradientUnits="userSpaceOnUse">
      <stop offset="0.4169"/>
      <stop offset="0.8808" stop-opacity="0.02"/>
    </linearGradient>
    <clipPath id="clip0_318_12001">
      <rect width="64" height="64" fill="white" transform="translate(440.222 241.1) rotate(0.109914)"/>
    </clipPath>
    <clipPath id="clip1_318_12001">
      <rect width="58.1641" height="58.1641" fill="white" transform="translate(360 483)"/>
    </clipPath>
  </defs>
  <g transform="matrix(0.624185, 0, 0, 0.624185, 803.099426, 233.242737)">
    <title>.NET</title>
    <g transform="matrix(1, 0, 0, 1, 36.977768, 23.703697)"/>
  </g>
  <g transform="matrix(0.624185, 0, 0, 0.624185, 452.742096, 319.05661)">
    <title>.NET</title>
    <g>
      <rect x="0" y="0" width="256" height="256" style=""/>
      <path d="M 70.237 149.83 C 69.022 149.83 67.989 149.315 67.139 148.285 C 66.288 147.229 65.862 145.973 65.862 144.521 C 65.862 143.044 66.288 141.776 67.139 140.719 C 67.989 139.663 69.022 139.134 70.237 139.134 C 71.473 139.134 72.516 139.663 73.367 140.719 C 74.238 141.776 74.674 143.044 74.674 144.521 C 74.674 145.973 74.238 147.229 73.367 148.285 C 72.516 149.315 71.473 149.83 70.237 149.83 Z M 118.825 148.96 L 110.926 148.96 L 90.112 107.207 C 89.584 106.15 89.149 105.053 88.805 103.919 L 88.622 103.919 L 88.653 104.181 L 88.683 104.478 L 88.709 104.815 L 88.735 105.186 L 88.768 105.815 L 88.796 106.526 L 88.82 107.321 L 88.838 108.196 L 88.853 109.157 L 88.858 109.844 L 88.865 111.722 L 88.865 148.96 L 81.877 148.96 L 81.877 92.154 L 90.293 92.154 L 110.408 132.915 L 110.906 133.913 L 111.225 134.569 L 111.499 135.145 L 111.728 135.642 L 111.856 135.931 L 111.963 136.184 L 112.049 136.403 L 112.171 136.403 L 112.147 136.224 L 112.105 135.84 L 112.066 135.418 L 112.029 134.958 C 112.025 134.88 112.018 134.798 112.013 134.717 L 111.982 134.201 L 111.955 133.651 L 111.932 133.063 L 111.903 132.112 L 111.884 131.076 L 111.872 129.958 L 111.867 128.757 L 111.867 92.154 L 118.825 92.154 L 118.825 148.96 Z M 152.858 148.96 L 128.397 148.96 L 128.397 92.154 L 151.885 92.154 L 151.885 100.157 L 135.63 100.157 L 135.63 116.238 L 150.609 116.238 L 150.609 124.201 L 135.63 124.201 L 135.63 140.997 L 152.858 140.997 L 152.858 148.96 Z M 187.621 100.157 L 175.102 100.157 L 175.102 148.96 L 167.87 148.96 L 167.87 100.157 L 155.381 100.157 L 155.381 92.154 L 187.621 92.154 L 187.621 100.157 Z" style="fill: rgba(79, 77, 77, 0.855); transform-origin: 125.25px 120.993px;"/>
    </g>
  </g>
  <g transform="matrix(3.655377, 0, 0, 3.583326, 154.635483, 271.000092)">
    <title>C#</title>
    <path d="M 2.015 7.575 L 2.015 15.866 C 2.015 16.892 2.573 17.84 3.481 18.353 L 10.808 22.499 C 11.715 23.012 12.832 23.012 13.739 22.499 L 21.067 18.353 C 21.974 17.841 22.533 16.892 22.533 15.866 L 22.533 7.575 C 22.533 6.549 21.974 5.601 21.067 5.088 L 13.739 0.943 C 12.832 0.43 11.715 0.43 10.808 0.943 L 3.481 5.088 C 2.574 5.601 2.015 6.549 2.015 7.575 Z M 7.144 10.285 L 7.144 13.157 C 7.143 13.554 7.472 13.876 7.878 13.875 C 8.282 13.874 8.61 13.553 8.61 13.157 C 8.613 12.604 9.226 12.26 9.714 12.538 C 9.767 12.569 9.817 12.606 9.861 12.649 C 9.998 12.784 10.075 12.966 10.075 13.157 C 10.075 14.815 8.243 15.852 6.778 15.022 C 6.097 14.638 5.678 13.926 5.678 13.157 L 5.678 10.285 C 5.678 9.713 5.91 9.166 6.323 8.763 C 7.181 7.92 8.574 7.92 9.431 8.763 C 9.843 9.166 10.075 9.714 10.075 10.285 C 10.075 10.475 9.998 10.658 9.861 10.792 C 9.575 11.075 9.11 11.075 8.824 10.792 C 8.687 10.658 8.61 10.475 8.61 10.285 C 8.611 9.888 8.283 9.566 7.878 9.567 C 7.472 9.566 7.144 9.888 7.144 10.285 Z M 18.869 13.157 C 18.87 13.554 18.541 13.876 18.136 13.875 L 17.404 13.875 L 17.404 14.593 C 17.374 15.146 16.746 15.461 16.272 15.161 C 16.074 15.035 15.949 14.824 15.938 14.593 L 15.938 13.875 L 14.472 13.875 L 14.472 14.593 C 14.469 15.147 13.856 15.49 13.368 15.212 C 13.315 15.181 13.265 15.144 13.221 15.101 C 13.084 14.966 13.007 14.784 13.007 14.593 L 13.007 13.875 L 12.273 13.875 C 11.709 13.875 11.357 13.277 11.639 12.798 C 11.77 12.576 12.012 12.439 12.273 12.439 L 13.007 12.439 L 13.007 11.004 L 12.273 11.004 C 11.709 11.004 11.357 10.405 11.639 9.926 C 11.77 9.704 12.012 9.567 12.273 9.567 L 13.007 9.567 L 13.007 8.849 C 13.009 8.296 13.622 7.952 14.11 8.231 C 14.164 8.261 14.213 8.298 14.257 8.341 C 14.394 8.476 14.472 8.658 14.472 8.849 L 14.472 9.567 L 15.938 9.567 L 15.938 8.849 C 15.966 8.297 16.595 7.981 17.069 8.282 C 17.267 8.407 17.391 8.618 17.404 8.849 L 17.404 9.567 L 18.136 9.567 C 18.7 9.567 19.053 10.165 18.771 10.645 C 18.64 10.867 18.398 11.004 18.136 11.004 L 17.404 11.004 L 17.404 12.439 L 18.136 12.439 C 18.54 12.441 18.867 12.762 18.869 13.157 Z M 15.938 11.004 L 14.472 11.004 L 14.472 12.439 L 15.938 12.439 L 15.938 11.004 Z" style="fill: rgba(106, 106, 106, 0.706);"/>
  </g>
  <g transform="matrix(2.508182, 0, 0, 2.999947, 445.40213, 236.000473)">
    <title>Microsoft SQL Server</title>
    <path d="M4.724 2.505s-.08.127-.004.315c.046.116.186.256.34.404 0 0 1.615 1.576 1.813 1.804.895 1.033 1.284 2.05 1.32 3.453.022.9-.151 1.692-.573 2.613-.756 1.649-2.35 3.468-4.81 5.49l.36-.12c.233-.173.548-.359 1.292-.766 1.713-.936 3.636-1.798 5.999-2.686 3.399-1.277 8.99-2.776 12.172-3.263l.331-.051-.05-.08c-.292-.452-.49-.731-.73-1.027-.697-.863-1.542-1.567-2.577-2.146-1.422-.797-3.267-1.416-5.6-1.88a67.93 67.93 0 00-2.191-.375 209.29 209.29 0 01-3.924-.64c-.425-.075-1.06-.181-1.481-.272a9.404 9.404 0 01-.961-.258c-.268-.105-.645-.207-.726-.515zm.936.909c.003-.002.063.017.137.042.136.046.316.1.526.159.146.04.307.084.479.127.218.056.399.104.401.107.024.027.391 1.198.516 1.647.048.172.084.315.081.318a.789.789 0 01-.09-.14c-.424-.746-1.097-1.505-1.874-2.116a3.104 3.104 0 01-.176-.144zm1.79.494c.018-.001.099.012.195.034.619.136 1.725.35 2.435.47.119.02.216.04.216.047a.348.348 0 01-.098.062c-.119.06-.602.349-.763.457-.403.27-.766.559-1.03.821a5.4 5.4 0 01-.197.192c-.003 0-.022-.062-.041-.137a12.09 12.09 0 00-.65-1.779 1.801 1.801 0 01-.071-.165c0-.001 0-.002.004-.002zm3.147.598c.02.007.06.13.129.404a6.05 6.05 0 01.153 1.977l-.012.038-.187-.06c-.388-.124-1.02-.31-1.562-.46a6.625 6.625 0 01-.56-.17c0-.022.449-.471.642-.642.369-.326 1.362-1.098 1.397-1.087zm.25.036c.011-.01 1.504.248 2.182.378.506.097 1.237.25 1.281.269.022.008-.054.05-.297.16-.96.432-1.672.82-2.38 1.293-.186.124-.341.226-.344.226-.004 0-.006-.104-.006-.23 0-.69-.139-1.387-.391-1.976a.688.688 0 01-.045-.12zm3.86.764c.011.011-.038.306-.08.48-.132.54-.482 1.344-.914 2.099a2.26 2.26 0 01-.152.246 1.499 1.499 0 01-.219-.115c-.422-.247-.9-.48-1.425-.697a4.588 4.588 0 01-.278-.12c-.024-.022 1.143-.795 1.762-1.166.495-.297 1.292-.741 1.306-.727zm.276.043c.033 0 .695.18 1.037.283.853.255 1.837.614 2.475.904l.265.12-.187.043c-1.561.36-2.9.773-4.188 1.296-.107.044-.2.08-.207.08a.911.911 0 01.075-.185c.388-.823.638-1.687.703-2.42.006-.067.018-.121.027-.121zm-6.58 1.512c.01-.01.514.108.789.185.413.116 1.292.41 1.292.433 0 .004-.097.089-.215.188-.475.397-.934.813-1.483 1.343a5.27 5.27 0 01-.308.285c-.007 0-.01-.023-.006-.05.083-.611.065-1.395-.05-2.193a1.29 1.29 0 01-.02-.19zm10.61.01c.007.008-.234.385-.384.6-.22.314-.537.726-1.261 1.637l-.954 1.202a9.418 9.418 0 01-.269.333c-.003 0-.05-.066-.103-.146a7.584 7.584 0 00-1.47-1.625 9.59 9.59 0 00-.27-.218.427.427 0 01-.074-.063c0-.01.617-.274 1.088-.466a37.02 37.02 0 012.778-.99c.442-.135.912-.27.919-.264zm.278.073a.93.93 0 01.207.1 12.274 12.274 0 012.428 1.824c.194.19.667.683.66.687l-.363.029c-1.53.115-3.486.44-5.37.893-.128.03-.238.056-.246.056-.007 0 .133-.14.311-.312 1.107-1.063 1.611-1.734 2.205-2.934.088-.178.163-.333.166-.342h.002zm-8.088.83c.051.01.523.23.879.408.325.163.818.426.843.449.003.003-.17.093-.386.201-.683.342-1.268.664-1.878 1.037-.175.107-.32.194-.325.194-.015 0-.01-.013.088-.191a7.702 7.702 0 00.738-2.002c.014-.062.03-.1.041-.097zm-.475.084c.01.01-.112.46-.19.7a9.092 9.092 0 01-.835 1.808l-.09.147-.203-.197a2.671 2.671 0 00-.676-.5 1.009 1.009 0 01-.176-.102c0-.03.62-.593 1.098-.998.343-.29 1.064-.867 1.072-.858zm2.888 1.188l.177.115c.407.264.888.619 1.255.924.206.172.605.53.687.616l.044.047-.294.082a53.8 53.8 0 00-4.45 1.424c-.167.061-.31.112-.32.112-.021 0-.042.019.333-.326.96-.883 1.807-1.856 2.44-2.802zm-.759.19c.009.009-.492.71-.789 1.106-.356.473-.99 1.265-1.426 1.78a8.769 8.769 0 01-.346.397c-.01.003-.015-.05-.016-.133 0-.44-.112-.91-.308-1.308-.083-.168-.097-.208-.08-.224.068-.062 1.127-.666 1.794-1.023.459-.246 1.163-.604 1.171-.595zm-4.59 1.125a3.988 3.988 0 01.812.518c.008.005-.087.083-.21.172-.345.249-.87.644-1.173.886-.32.255-.331.263-.295.207.24-.367.36-.574.486-.84.113-.236.224-.516.304-.76a.675.675 0 01.077-.183zm1.223.96c.017-.003.04.028.139.175.207.31.366.722.407 1.058l.008.073-.497.192c-.89.346-1.711.687-2.266.94-.155.072-.428.202-.607.292-.179.09-.325.16-.325.156 0-.004.112-.089.25-.188 1.087-.79 2.025-1.654 2.732-2.519.075-.092.144-.172.153-.178a.016.016 0 01.006-.002zm-.564.14c.015.014-.401.484-.681.77-.7.715-1.396 1.275-2.256 1.821-.108.069-.206.13-.22.138-.023.014.008-.022.386-.434.238-.259.42-.474.628-.743.136-.177.162-.202.362-.346.537-.388 1.767-1.221 1.781-1.207zM9.925 0c-.08-.01-1.371.455-2.2.791-1.123.457-1.996.894-2.534 1.272-.2.14-.452.393-.488.49a.356.356 0 00-.021.123l.488.46 1.158.37L9.087 4l3.153.542.032-.27-.028-.005-.415-.066-.085-.148a27.702 27.702 0 01-1.177-2.325 12.264 12.264 0 01-.53-1.465C9.969.02 9.962.005 9.925 0zm-.061.186h.005c.003.003.017.105.032.225.062.508.176 1 .354 1.53.134.4.136.377-.024.332-.37-.103-2.032-.388-3.234-.555a8.796 8.796 0 01-.357-.053c-.015-.015.867-.477 1.258-.66.501-.232 1.867-.8 1.966-.819zM6.362 1.814l.141.048c.772.262 2.706.632 3.775.72.12.01.222.021.225.024.003.003-.1.058-.228.122-.515.258-1.083.573-1.476.819-.115.072-.22.13-.235.129a4.868 4.868 0 01-.17-.027l-.144-.023-.365-.355c-.641-.62-1.141-1.1-1.335-1.28zm-.143.114l.511.638c.282.35.564.699.626.774.063.075.111.138.108.14-.014.011-.74-.13-1.125-.219a8.532 8.532 0 01-.803-.212l-.2-.064.001-.049c.003-.245.312-.607.836-.976zm4.352.869c.015.001.032.032.077.131.124.272.51 1.008.603 1.15.03.047.08.05-.433-.033-1.23-.198-1.629-.265-1.629-.273a.36.36 0 01.083-.054 7.13 7.13 0 001.107-.767l.175-.147c.006-.005.012-.008.017-.007zm4.309 8.408l-4.808 1.568-4.18 1.846-1.17.31c-.298.282-.613.568-.948.86-.37.321-.716.612-.98.822a7.46 7.46 0 00-.953.945c-.332.414-.592.854-.704 1.193-.2.61-.103 1.228.285 1.798.495.728 1.48 1.468 2.625 1.972.585.256 1.57.588 2.31.774 1.233.312 3.614.65 4.926.7.266.01.62.01.637-.002.028-.019.233-.405.47-.89.806-1.646 1.389-3.19 1.703-4.508.19-.799.338-1.863.434-3.125.027-.354.037-1.533.016-1.934a13.564 13.564 0 00-.183-1.706.435.435 0 01-.012-.15c.014-.01.059-.025.65-.197zm-1.1.645c.045 0 .16 1.114.191 1.82.006.151.005.247-.004.247-.028 0-.615-.345-1.032-.606a28.716 28.716 0 01-1.162-.772c-.035-.028-.031-.029.266-.131.505-.174 1.704-.558 1.742-.558zm-2.448.803c.03 0 .115.047.315.172.75.47 1.766 1.035 2.2 1.225.136.06.151.036-.16.247-.662.45-1.486.892-2.497 1.342a7.59 7.59 0 01-.331.142.989.989 0 01.043-.2c.245-.905.383-1.82.387-2.554.002-.362.002-.364.037-.373h.006zm-.504.193c.021.022.006.834-.02 1.056a9.206 9.206 0 01-.418 1.837c-.014.017-.511-.468-.676-.66a4.918 4.918 0 01-.669-.973c-.082-.162-.214-.484-.202-.493.056-.04 1.971-.78 1.985-.767zm-2.375.936c.004 0 .008.001.01.004a.881.881 0 01.056.131c.116.315.376.782.602 1.08a6.247 6.247 0 001.017 1.06c.023.02.03.016-.562.24a48.53 48.53 0 01-2.294.8c-.327.106-.604.195-.615.2-.033.011-.023-.009.073-.158.427-.666 1.073-1.97 1.435-2.892.062-.16.122-.32.133-.356.015-.052.031-.07.08-.092a.149.149 0 01.065-.017zm-.728.3c.01.009-.174.398-.356.751-.351.686-.739 1.361-1.253 2.185l-.182.288c-.018.027-.026.018-.082-.094a3.307 3.307 0 01-.28-.842 3.39 3.39 0 01.02-1.083c.047-.227.045-.222.152-.276.462-.237 1.966-.942 1.981-.929zm6.268.255v.154a20.106 20.106 0 01-.255 2.992 9.362 9.362 0 01-1.898-.782c-.354-.194-.865-.507-.85-.522.003-.004.154-.083.334-.177.714-.37 1.395-.77 1.988-1.166.222-.148.555-.389.629-.454zM4.981 15.41c.015 0 .011.028-.012.161a4.137 4.137 0 00-.041.39c-.03.532.057.924.32 1.46.074.15.132.274.129.276-.027.023-2.43.726-3.186.933l-.435.12c-.027.008-.029.002-.02-.06.083-.533.49-1.232 1.058-1.82.378-.39.68-.622 1.195-.915a30.782 30.782 0 01.992-.545zm5.669 1.015c.002-.002.091.045.197.107.777.449 1.86.87 2.783 1.081l.084.02-.115.063c-.482.268-2.071.929-3.694 1.537a68.82 68.82 0 00-.513.194.314.314 0 01-.082.027c0-.004.067-.132.149-.286.456-.852.91-1.887 1.144-2.605.023-.073.044-.135.047-.138zm-.578.19a1.39 1.39 0 01-.063.169 23.534 23.534 0 01-1.261 2.54 9.009 9.009 0 01-.252.433c-.005 0-.114-.066-.244-.145-.77-.472-1.452-1.052-1.9-1.617l-.064-.08.332-.091a23.616 23.616 0 003.19-1.103c.142-.06.26-.109.262-.106zm3.59 1.253c.001 0 .002.001.002.003 0 .08-.183.828-.336 1.37-.128.453-.236.808-.435 1.437a8.533 8.533 0 01-.168.504 15.004 15.004 0 01-3-.841 7.964 7.964 0 01-.639-.283c-.006-.007.213-.11.486-.23 1.655-.721 3.369-1.543 3.955-1.896a.432.432 0 01.135-.064zm-8.287.283c.009.009-.454.671-1.1 1.576l-.587.823c-.097.139-.245.358-.329.488l-.153.236-.162-.137c-.191-.16-.525-.501-.677-.69-.312-.389-.523-.798-.607-1.174-.038-.174-.04-.262-.003-.273a176.26 176.26 0 011.934-.455l1.3-.305c.209-.05.382-.09.384-.089zm.465.178l.117.131a6.763 6.763 0 001.706 1.394c.115.066.202.124.195.128a281.967 281.967 0 01-4.33 1.53.858.858 0 01-.072-.048l-.067-.048.105-.152c.34-.493.768-1.035 1.705-2.162zm2.9 2.073c.003-.003.165.054.362.128.473.177.844.292 1.347.418.617.155 1.51.31 2.038.354.08.006.122.016.11.024-.025.016-.56.194-.953.318a258.526 258.526 0 01-4.636 1.363c-.035.007-.157-.025-.157-.04 0-.009.087-.119.193-.246a22.027 22.027 0 001.476-1.984 56.9 56.9 0 01.22-.335zm-.642.018c.005.005-.253.418-.706 1.132-.192.301-.409.645-.483.762-.075.118-.184.298-.242.4l-.107.185-.054-.014c-.13-.035-1.049-.36-1.291-.456-.301-.12-.615-.264-.846-.389-.289-.156-.655-.388-.627-.397l1.105-.302c1.592-.434 2.473-.683 3.05-.864.109-.033.199-.059.2-.057zm4.523 1.061h.006c.015.038-.575 1.67-.79 2.188-.049.116-.066.145-.092.143a55.54 55.54 0 01-1.433-.2c-.906-.138-2.423-.403-2.806-.49l-.089-.02.543-.122c1.164-.262 1.723-.403 2.29-.577a16.544 16.544 0 002.138-.824c.113-.052.21-.093.233-.098Z" style="fill: rgba(41, 41, 41, 0.855);"/>
  </g>
  <g transform="matrix(0.304688, 0, 0, 0.284153, 318, 327)">
    <title>Angular</title>
    <g>
      <path d="M256,45.1787083 L246.756071,190.336865 L158.373321,0 L256,45.1787083 Z M194.783035,232.875768 L128.000576,270.981182 L61.2169653,232.875768 L74.7998577,199.957744 L181.200142,199.957744 L194.783035,232.875768 Z M128.000576,72.2488146 L162.994709,157.325468 L93.005291,157.325468 L128.000576,72.2488146 Z M9.14940313,190.336865 L0,45.1787083 L97.626679,0 L9.14940313,190.336865 Z" style="fill: rgb(116, 115, 115);"/>
      <path d="M256,45.1787083 L246.756071,190.336865 L158.373321,0 L256,45.1787083 Z M194.783035,232.875768 L128.000576,270.981182 L61.2169653,232.875768 L74.7998577,199.957744 L181.200142,199.957744 L194.783035,232.875768 Z M128.000576,72.2488146 L162.994709,157.325468 L93.005291,157.325468 L128.000576,72.2488146 Z M9.14940313,190.336865 L0,45.1787083 L97.626679,0 L9.14940313,190.336865 Z" style="fill: rgb(116, 115, 115);"/>
    </g>
  </g>
  <g transform="matrix(3.291652, 0, 0, 2.732963, 271.997986, 183.204437)">
    <title>Microsoft Azure</title>
    <path d="M22.379 23.343a1.62 1.62 0 0 0 1.536-2.14v.002L17.35 1.76A1.62 1.62 0 0 0 15.816.657H8.184A1.62 1.62 0 0 0 6.65 1.76L.086 21.204a1.62 1.62 0 0 0 1.536 2.139h4.741a1.62 1.62 0 0 0 1.535-1.103l.977-2.892 4.947 3.675c.28.208.618.32.966.32m-3.084-12.531 3.624 10.739a.54.54 0 0 1-.51.713v-.001h-.03a.54.54 0 0 1-.322-.106l-9.287-6.9h4.853m6.313 7.006c.116-.326.13-.694.007-1.058L9.79 1.76a1.722 1.722 0 0 0-.007-.02h6.034a.54.54 0 0 1 .512.366l6.562 19.445a.54.54 0 0 1-.338.684" style="fill: rgb(54, 54, 54);"/>
  </g>
</svg>